<?xml version="1.0" encoding="UTF-8"?>
<svg xmlns="http://www.w3.org/2000/svg" xmlns:xlink="http://www.w3.org/1999/xlink" width="30px" height="30px" viewBox="0 0 30 30" version="1.1">
<g id="surface1">
<path style=" stroke:none;fill-rule:nonzero;fill:rgb(0%,0%,0%);fill-opacity:1;" d="M 0 2.8125 C 0 2.292969 0.417969 1.875 0.9375 1.875 L 3.75 1.875 C 4.179688 1.875 4.554688 2.167969 4.660156 2.585938 L 5.417969 5.625 L 27.1875 5.625 C 27.46875 5.625 27.734375 5.75 27.910156 5.96875 C 28.089844 6.183594 28.160156 6.472656 28.105469 6.746094 L 26.230469 16.121094 C 26.148438 16.542969 25.789062 16.851562 25.359375 16.875 L 7.738281 17.757812 L 8.277344 20.625 L 24.375 20.625 C 24.894531 20.625 25.3125 21.042969 25.3125 21.5625 C 25.3125 22.082031 24.894531 22.5 24.375 22.5 L 7.5 22.5 C 7.050781 22.5 6.664062 22.179688 6.578125 21.734375 L 3.769531 6.761719 L 3.019531 3.75 L 0.9375 3.75 C 0.417969 3.75 0 3.332031 0 2.8125 Z M 5.816406 7.5 L 7.390625 15.898438 L 24.535156 15.039062 L 26.042969 7.5 Z M 9.375 22.5 C 7.304688 22.5 5.625 24.179688 5.625 26.25 C 5.625 28.320312 7.304688 30 9.375 30 C 11.445312 30 13.125 28.320312 13.125 26.25 C 13.125 24.179688 11.445312 22.5 9.375 22.5 Z M 22.5 22.5 C 20.429688 22.5 18.75 24.179688 18.75 26.25 C 18.75 28.320312 20.429688 30 22.5 30 C 24.570312 30 26.25 28.320312 26.25 26.25 C 26.25 24.179688 24.570312 22.5 22.5 22.5 Z M 9.375 24.375 C 10.410156 24.375 11.25 25.214844 11.25 26.25 C 11.25 27.285156 10.410156 28.125 9.375 28.125 C 8.339844 28.125 7.5 27.285156 7.5 26.25 C 7.5 25.214844 8.339844 24.375 9.375 24.375 Z M 22.5 24.375 C 23.535156 24.375 24.375 25.214844 24.375 26.25 C 24.375 27.285156 23.535156 28.125 22.5 28.125 C 21.464844 28.125 20.625 27.285156 20.625 26.25 C 20.625 25.214844 21.464844 24.375 22.5 24.375 Z M 22.5 24.375 "/>
</g>
</svg>
